<svg width="120" height="60" viewBox="0 0 120 60" fill="none" xmlns="http://www.w3.org/2000/svg">
<path d="M0 60C0 26.8629 26.8629 0 60 0C93.1371 0 120 26.8629 120 60H0Z" fill="#FDB913"/>
<path d="M49.0815 43.06C49.0815 41.59 47.0915 41.03 45.7915 40.59C44.6615 40.21 44.4915 40.09 44.4915 39.77C44.4915 39.41 44.9415 39.25 45.6615 39.25C46.5315 39.25 47.1915 39.49 47.1915 40.35H48.7915C48.7915 38.95 47.8215 37.85 45.6615 37.85C43.8415 37.85 42.8915 38.51 42.8915 39.71C42.8915 41.09 44.1015 41.49 45.5915 41.99C46.6215 42.34 47.4815 42.57 47.4815 43.08C47.4815 43.46 47.1415 43.7 46.1115 43.7C44.7115 43.7 44.1715 43.36 44.1715 42.28H42.5715C42.5715 44.06 43.5215 45.1 46.0615 45.1C48.2315 45.1 49.0815 44.27 49.0815 43.06ZM50.1832 42.38C50.1832 44.14 51.2732 45.1 53.3632 45.1C55.4532 45.1 56.5532 44.14 56.5532 42.38V37.95H54.9532V41.67C54.9532 42.93 54.8332 43.7 53.3632 43.7C51.8932 43.7 51.7832 42.93 51.7832 41.67V37.95H50.1832V42.38ZM57.9535 45H60.5535C62.3935 45 63.8635 44.73 63.8635 43.13C63.8635 41.63 62.7235 41.53 61.6535 41.49V41.09C62.4035 41.03 63.3435 41 63.3435 39.68C63.3435 38.29 62.3935 37.95 60.4335 37.95H57.9535V45ZM59.5535 40.63V39.35H60.6335C61.2835 39.35 61.7435 39.35 61.7435 39.99C61.7435 40.63 61.2835 40.63 60.6335 40.63H59.5535ZM59.5535 43.6V42.03H60.7535C61.7035 42.03 62.2635 42.03 62.2635 42.82C62.2635 43.6 61.7035 43.6 60.7535 43.6H59.5535ZM69.7648 39.35V37.95H64.9648V39.35H66.5648V43.6H64.9648V45H69.7648V43.6H68.1648V39.35H69.7648ZM71.1703 45H72.7703V42.52H75.5303V45H77.1303V42.75C77.1303 42.2 76.8303 41.9 76.2803 41.9H75.2503V41.5C76.1003 41.4 77.0403 41.08 77.0403 39.92C77.0403 38.34 75.5803 37.95 73.9003 37.95H71.1703V45ZM72.7703 41.12V39.35H73.9003C74.8503 39.35 75.4403 39.35 75.4403 40.24C75.4403 41.12 74.8503 41.12 73.9003 41.12H72.7703Z" fill="black"/>
<path d="M59 16V25C59 25.2652 59.1054 25.5196 59.2929 25.7071C59.4804 25.8946 59.7348 26 60 26C60.2652 26 60.5196 25.8946 60.7071 25.7071C60.8946 25.5196 61 25.2652 61 25V16C61 15.7348 60.8946 15.4804 60.7071 15.2929C60.5196 15.1054 60.2652 15 60 15C59.7348 15 59.4804 15.1054 59.2929 15.2929C59.1054 15.4804 59 15.7348 59 16Z" fill="black"/>
<path d="M66 18C66.1316 18.0008 66.2621 17.9755 66.3839 17.9258C66.5057 17.876 66.6166 17.8027 66.71 17.71C66.8037 17.617 66.8781 17.5064 66.9289 17.3846C66.9797 17.2627 67.0058 17.132 67.0058 17C67.0058 16.868 66.9797 16.7373 66.9289 16.6154C66.8781 16.4936 66.8037 16.383 66.71 16.29L60.71 10.29C60.617 10.1963 60.5064 10.1219 60.3846 10.0711C60.2627 10.0203 60.132 9.9942 60 9.9942C59.868 9.9942 59.7373 10.0203 59.6154 10.0711C59.4936 10.1219 59.383 10.1963 59.29 10.29L53.29 16.29C53.1017 16.4783 52.9959 16.7337 52.9959 17C52.9959 17.2663 53.1017 17.5217 53.29 17.71C53.4783 17.8983 53.7337 18.0041 54 18.0041C54.2663 18.0041 54.5217 17.8983 54.71 17.71L60 12.41L65.29 17.71C65.3834 17.8027 65.4943 17.876 65.6161 17.9258C65.7379 17.9755 65.8684 18.0008 66 18Z" fill="black"/>
</svg>
