<svg width="17" height="16" viewBox="0 0 17 16" fill="none" xmlns="http://www.w3.org/2000/svg">
<path d="M16 7H7C6.73478 7 6.48043 7.10536 6.29289 7.29289C6.10536 7.48043 6 7.73479 6 8C6 8.26522 6.10536 8.51957 6.29289 8.70711C6.48043 8.89465 6.73478 9 7 9H16C16.2652 9 16.5196 8.89465 16.7071 8.70711C16.8946 8.51957 17 8.26522 17 8C17 7.73479 16.8946 7.48043 16.7071 7.29289C16.5196 7.10536 16.2652 7 16 7Z" fill="black"/>
<path d="M7.29 14.71C7.38296 14.8037 7.49356 14.8781 7.61542 14.9289C7.73728 14.9797 7.86799 15.0058 8 15.0058C8.13201 15.0058 8.26272 14.9797 8.38458 14.9289C8.50644 14.8781 8.61704 14.8037 8.71 14.71C8.80373 14.617 8.87812 14.5064 8.92889 14.3846C8.97966 14.2627 9.0058 14.132 9.0058 14C9.0058 13.868 8.97966 13.7373 8.92889 13.6154C8.87812 13.4936 8.80373 13.383 8.71 13.29L3.41 8L8.71 2.71C8.80324 2.61676 8.8772 2.50607 8.92766 2.38425C8.97812 2.26243 9.00409 2.13186 9.00409 2C9.00409 1.86814 8.97812 1.73757 8.92766 1.61575C8.8772 1.49393 8.80324 1.38324 8.71 1.29C8.61676 1.19676 8.50607 1.1228 8.38425 1.07234C8.26243 1.02188 8.13186 0.995911 8 0.995911C7.86814 0.995911 7.73757 1.02188 7.61575 1.07234C7.49393 1.1228 7.38324 1.19676 7.29 1.29L1.29 7.29C1.19627 7.38297 1.12188 7.49357 1.07111 7.61543C1.02034 7.73728 0.994202 7.86799 0.994202 8C0.994202 8.13201 1.02034 8.26272 1.07111 8.38458C1.12188 8.50644 1.19627 8.61704 1.29 8.71L7.29 14.71Z" fill="black"/>
</svg>