<svg width="18" height="10" viewBox="0 0 18 10" fill="none" xmlns="http://www.w3.org/2000/svg">
<path d="M15.29 0.790002L9 7.09L2.71 0.790002C2.5217 0.601698 2.2663 0.495911 2 0.495911C1.7337 0.495911 1.47831 0.601698 1.29 0.790002C1.1017 0.978306 0.995911 1.2337 0.995911 1.5C0.995911 1.7663 1.1017 2.0217 1.29 2.21L8.29 9.21C8.38297 9.30373 8.49357 9.37813 8.61543 9.42889C8.73728 9.47966 8.86799 9.5058 9 9.5058C9.13201 9.5058 9.26272 9.47966 9.38458 9.42889C9.50644 9.37813 9.61704 9.30373 9.71 9.21L16.71 2.21C16.8032 2.11676 16.8772 2.00607 16.9277 1.88425C16.9781 1.76243 17.0041 1.63186 17.0041 1.5C17.0041 1.36814 16.9781 1.23757 16.9277 1.11575C16.8772 0.99393 16.8032 0.88324 16.71 0.790002C16.6168 0.696763 16.5061 0.622802 16.3843 0.572342C16.2624 0.521882 16.1319 0.495911 16 0.495911C15.8681 0.495911 15.7376 0.521882 15.6158 0.572342C15.4939 0.622802 15.3832 0.696763 15.29 0.790002Z" fill="black"/>
</svg>
