<svg width="17" height="16" viewBox="0 0 17 16" fill="none" xmlns="http://www.w3.org/2000/svg">
<path d="M1 9H10C10.2652 9 10.5196 8.89465 10.7071 8.70711C10.8946 8.51957 11 8.26522 11 8C11 7.73479 10.8946 7.48043 10.7071 7.29289C10.5196 7.10536 10.2652 7 10 7H1C0.734784 7 0.48043 7.10536 0.292893 7.29289C0.105357 7.48043 0 7.73479 0 8C0 8.26522 0.105357 8.51957 0.292893 8.70711C0.48043 8.89465 0.734784 9 1 9Z" fill="black"/>
<path d="M9.71 1.29C9.5217 1.1017 9.2663 0.995911 9 0.995911C8.7337 0.995911 8.4783 1.1017 8.29 1.29C8.1017 1.47831 7.99591 1.7337 7.99591 2C7.99591 2.2663 8.1017 2.5217 8.29 2.71L13.59 8L8.29 13.29C8.19627 13.383 8.12188 13.4936 8.07111 13.6154C8.02034 13.7373 7.9942 13.868 7.9942 14C7.9942 14.132 8.02034 14.2627 8.07111 14.3846C8.12188 14.5064 8.19627 14.617 8.29 14.71C8.38296 14.8037 8.49356 14.8781 8.61542 14.9289C8.73728 14.9797 8.86799 15.0058 9 15.0058C9.13201 15.0058 9.26272 14.9797 9.38458 14.9289C9.50644 14.8781 9.61704 14.8037 9.71 14.71L15.71 8.71C15.8037 8.61704 15.8781 8.50644 15.9289 8.38458C15.9797 8.26272 16.0058 8.13201 16.0058 8C16.0058 7.86799 15.9797 7.73728 15.9289 7.61543C15.8781 7.49357 15.8037 7.38297 15.71 7.29L9.71 1.29Z" fill="black"/>
</svg>