<svg width="320" height="180" viewBox="0 0 320 180" fill="none" xmlns="http://www.w3.org/2000/svg">
<rect width="320" height="180" fill="white"/>
<path d="M115.738 95.1731C113.724 96.1014 111.765 97.1442 109.869 98.2962C108.561 99.2706 107.32 100.332 106.154 101.473C103.653 98.7121 100.522 96.5969 97.0269 95.3077C96.745 95.2089 96.4451 95.1722 96.1477 95.2001C95.8503 95.2279 95.5625 95.3198 95.3038 95.4692C94.6577 96.2231 95.3038 96.7346 96.0038 97.1385C97.3765 97.9446 98.5649 99.0296 99.4924 100.323C100.42 101.617 101.066 103.091 101.388 104.65C102.287 110.247 102.132 115.963 100.931 121.504C100.627 122.884 100.024 124.181 99.1628 125.303C98.3021 126.424 97.2052 127.342 95.95 127.992C97.756 128.272 99.6008 128.162 101.361 127.669C103.121 127.177 104.755 126.314 106.154 125.138C107.475 126.299 109.026 127.167 110.705 127.686C112.385 128.206 114.155 128.365 115.9 128.154C115.9 128.154 115.9 127.885 115.9 127.858C114.586 127.044 113.469 125.947 112.63 124.648C111.792 123.349 111.254 121.879 111.054 120.346C110.274 115.457 110.165 110.484 110.731 105.565C110.911 103.973 111.445 102.441 112.292 101.081C113.14 99.7208 114.281 98.5671 115.631 97.7038C116.008 97.5059 116.353 97.2517 116.654 96.95C116.893 96.5464 117.074 96.1114 117.192 95.6577C116.681 95.4423 116.062 95.0115 115.738 95.1731Z" fill="black"/>
<path d="M122.927 87.2038C119.077 84.9154 112.965 87.2038 112.158 91.3769C113.128 91.8753 114.193 92.1625 115.283 92.2196C116.373 92.2767 117.462 92.1024 118.479 91.7082C119.497 91.3139 120.419 90.7087 121.185 89.9324C121.952 89.156 122.546 88.2261 122.927 87.2038Z" fill="black"/>
<path d="M100.177 91.4038C99.2615 87.2846 93.6077 85.05 89.4077 87.1769C89.7974 88.1932 90.3947 89.1172 91.1613 89.8899C91.9279 90.6625 92.8472 91.267 93.8604 91.6647C94.8736 92.0624 95.9586 92.2446 97.0461 92.1997C98.1337 92.1548 99.1999 91.8837 100.177 91.4038Z" fill="black"/>
<path d="M121.069 94.2577C121.599 95.0804 122.307 95.7726 123.142 96.2827C123.977 96.7929 124.916 97.1076 125.89 97.2034C126.864 97.2992 127.846 97.1736 128.764 96.836C129.683 96.4984 130.513 95.9575 131.192 95.2538C130.673 94.4184 129.969 93.7135 129.134 93.194C128.299 92.6744 127.355 92.3541 126.377 92.2577C125.398 92.1614 124.41 92.2917 123.49 92.6385C122.569 92.9853 121.741 93.5394 121.069 94.2577Z" fill="black"/>
<path d="M88.8423 82.1423C88.5816 81.206 88.1123 80.3409 87.4694 79.6119C86.8265 78.883 86.0268 78.3091 85.1304 77.9334C84.234 77.5578 83.2642 77.3901 82.2937 77.4429C81.3232 77.4957 80.3773 77.7677 79.5269 78.2385C79.7736 79.184 80.2351 80.0599 80.8755 80.798C81.5159 81.5361 82.3179 82.1166 83.2191 82.4943C84.1204 82.872 85.0966 83.0367 86.0719 82.9757C87.0471 82.9146 87.9952 82.6294 88.8423 82.1423Z" fill="black"/>
<path d="M91.2385 94.2846C90.5741 93.5663 89.7541 93.0096 88.8413 92.6573C87.9285 92.305 86.9471 92.1664 85.9724 92.2522C84.9978 92.338 84.0557 92.6458 83.2184 93.1521C82.3812 93.6584 81.671 94.3498 81.1423 95.1731C81.8145 95.8771 82.6364 96.4208 83.5472 96.764C84.458 97.1072 85.4344 97.2411 86.404 97.1558C87.3735 97.0705 88.3115 96.7681 89.1484 96.2711C89.9853 95.7741 90.6996 95.0952 91.2385 94.2846Z" fill="black"/>
<path d="M90.5385 74.3077C90.6012 73.3427 90.4419 72.3761 90.0728 71.4822C89.7037 70.5884 89.1346 69.791 88.4092 69.1514C87.6838 68.5119 86.8215 68.0471 85.8885 67.7928C84.9554 67.5385 83.9765 67.5015 83.0269 67.6846C82.9587 68.6511 83.1143 69.6202 83.4816 70.5168C83.8489 71.4133 84.418 72.2131 85.1447 72.8538C85.8715 73.4946 86.7362 73.9591 87.6717 74.2113C88.6071 74.4634 89.5882 74.4964 90.5385 74.3077Z" fill="black"/>
<path d="M132.862 78.3192C132.02 77.8313 131.077 77.5425 130.106 77.4748C129.135 77.4071 128.162 77.5624 127.26 77.9287C126.359 78.2951 125.553 78.8628 124.905 79.5884C124.256 80.3141 123.782 81.1784 123.519 82.1154C124.36 82.6088 125.303 82.9021 126.276 82.9726C127.248 83.043 128.224 82.8888 129.127 82.5218C130.03 82.1548 130.837 81.5848 131.484 80.8561C132.132 80.1273 132.603 79.2593 132.862 78.3192Z" fill="black"/>
<path d="M129.362 67.7115C128.412 67.5188 127.43 67.5479 126.493 67.7964C125.557 68.045 124.69 68.5063 123.96 69.1445C123.231 69.7828 122.659 70.5807 122.288 71.4762C121.917 72.3717 121.758 73.3407 121.823 74.3077C122.772 74.4948 123.752 74.4617 124.686 74.211C125.62 73.9603 126.485 73.4987 127.213 72.8617C127.941 72.2246 128.513 71.4291 128.886 70.5363C129.258 69.6435 129.421 68.6771 129.362 67.7115Z" fill="black"/>
<path d="M107.769 78.1846C106.882 78.549 106.088 79.1078 105.446 79.8199C104.803 80.5321 104.329 81.3793 104.058 82.2991C103.786 83.219 103.725 84.188 103.878 85.1347C104.031 86.0815 104.395 86.9818 104.942 87.7692C105.833 87.4089 106.631 86.8522 107.276 86.1406C107.921 85.4289 108.398 84.5807 108.669 83.6593C108.941 82.7379 109.001 81.767 108.845 80.819C108.69 79.8711 108.322 78.9705 107.769 78.1846Z" fill="black"/>
<path d="M98.0769 58.8538C97.4221 59.548 96.9389 60.386 96.666 61.3005C96.3932 62.215 96.3384 63.1807 96.5058 64.1202C96.6733 65.0597 97.0585 65.947 97.6306 66.7109C98.2026 67.4748 98.9456 68.0941 99.8 68.5192C100.455 67.825 100.938 66.9871 101.211 66.0726C101.484 65.1581 101.539 64.1924 101.371 63.2529C101.204 62.3133 100.818 61.4261 100.246 60.6622C99.6743 59.8983 98.9313 59.279 98.0769 58.8538Z" fill="black"/>
<path d="M136.685 87.15C136.044 86.4396 135.248 85.8866 134.359 85.5339C133.47 85.1812 132.511 85.0384 131.558 85.1165C130.605 85.1947 129.682 85.4917 128.862 85.9845C128.042 86.4772 127.347 87.1525 126.831 87.9577C127.477 88.6583 128.274 89.2024 129.162 89.5489C130.05 89.8953 131.005 90.0349 131.955 89.957C132.905 89.8792 133.824 89.5859 134.644 89.0995C135.463 88.6132 136.161 87.9464 136.685 87.15Z" fill="black"/>
<path d="M75.6769 87.1769C76.2048 87.9667 76.9038 88.6275 77.7219 89.1102C78.5401 89.5929 79.4565 89.8852 80.403 89.9654C81.3496 90.0455 82.302 89.9115 83.1897 89.5733C84.0774 89.2351 84.8776 88.7013 85.5308 88.0115C85.0203 87.2 84.3284 86.5181 83.5095 86.0196C82.6906 85.521 81.7671 85.2194 80.8119 85.1384C79.8566 85.0575 78.8955 85.1995 78.0044 85.5533C77.1134 85.907 76.3166 86.4628 75.6769 87.1769Z" fill="black"/>
<path d="M114.365 58.8C113.515 59.2314 112.775 59.8535 112.205 60.6178C111.634 61.382 111.248 62.2678 111.076 63.2059C110.904 64.1441 110.951 65.1093 111.213 66.0262C111.476 66.9432 111.946 67.7872 112.588 68.4923C113.447 68.0691 114.195 67.4509 114.773 66.6869C115.35 65.923 115.741 65.0347 115.913 64.0928C116.086 63.151 116.036 62.1818 115.767 61.2628C115.498 60.3438 115.018 59.5004 114.365 58.8Z" fill="black"/>
<path d="M105.588 65.1538C105.033 65.9221 104.658 66.8064 104.493 67.7402C104.328 68.674 104.377 69.633 104.637 70.5452C104.896 71.4573 105.358 72.2988 105.989 73.0065C106.621 73.7141 107.404 74.2695 108.281 74.6308C108.831 73.8609 109.202 72.9768 109.364 72.0442C109.526 71.1116 109.476 70.1545 109.217 69.2439C108.958 68.3334 108.498 67.4929 107.869 66.7848C107.241 66.0767 106.462 65.5192 105.588 65.1538Z" fill="black"/>
<path d="M102.25 77C102.412 73.2577 99.5577 70.7 95.0885 70.6192C94.0654 73.9038 98.0769 77.4308 102.25 77Z" fill="black"/>
<path d="M99.4769 83.8654C99.4769 80.2846 96.0038 77.8615 91.7769 78.4808C91.8377 79.3801 92.0993 80.2544 92.5425 81.0393C92.9857 81.8243 93.5992 82.4998 94.3379 83.0164C95.0766 83.533 95.9217 83.8774 96.811 84.0243C97.7004 84.1712 98.6113 84.1169 99.4769 83.8654Z" fill="black"/>
<path d="M120.558 78.5615C116.654 77.6731 112.481 80.5808 112.912 83.9462C116.115 85.0769 120.854 82.0885 120.558 78.5615Z" fill="black"/>
<path d="M118.646 69.7846C114.904 69.7846 111.485 73.9038 112.804 76.3C113.642 76.3428 114.479 76.1977 115.253 75.8754C116.028 75.553 116.72 75.0616 117.28 74.437C117.84 73.8124 118.254 73.0704 118.49 72.2654C118.726 71.4605 118.78 70.6129 118.646 69.7846Z" fill="black"/>
<path d="M76.5385 81.9808C76.2122 81.2443 75.7167 80.5954 75.0922 80.0867C74.4677 79.578 73.7319 79.2239 72.9447 79.0534C72.1575 78.8828 71.3411 78.9005 70.5621 79.1051C69.7831 79.3097 69.0633 79.6954 68.4615 80.2308C68.8274 80.9289 69.342 81.5383 69.9691 82.0158C70.5962 82.4932 71.3205 82.8272 72.0909 82.9941C72.8612 83.161 73.6588 83.1568 74.4273 82.9817C75.1958 82.8066 75.9165 82.4649 76.5385 81.9808Z" fill="black"/>
<path d="M73.8462 69.8115C73.929 70.6016 74.1947 71.3615 74.6222 72.031C75.0498 72.7006 75.6274 73.2614 76.3092 73.6689C76.9911 74.0765 77.7585 74.3196 78.5507 74.3791C79.3429 74.4386 80.138 74.3127 80.8731 74.0115C80.8012 73.2165 80.5423 72.4497 80.1175 71.7738C79.6927 71.098 79.1141 70.5321 78.4289 70.1226C77.7437 69.713 76.9713 69.4713 76.1748 69.4173C75.3784 69.3632 74.5804 69.4983 73.8462 69.8115Z" fill="black"/>
<path d="M134.423 92.5346C134.836 93.1913 135.385 93.751 136.034 94.1756C136.683 94.6002 137.416 94.8795 138.183 94.9946C138.95 95.1096 139.733 95.0576 140.478 94.8422C141.223 94.6267 141.913 94.2528 142.5 93.7462C142.115 93.0588 141.577 92.4687 140.928 92.0209C140.28 91.5731 139.538 91.2795 138.758 91.1626C137.979 91.0457 137.183 91.1086 136.432 91.3464C135.68 91.5842 134.993 91.9906 134.423 92.5346Z" fill="black"/>
<path d="M69.6731 93.6654C70.237 94.2067 70.9152 94.6145 71.6577 94.8587C72.4003 95.103 73.1881 95.1775 73.9633 95.0767C74.7384 94.976 75.481 94.7025 76.1364 94.2765C76.7918 93.8505 77.3432 93.2829 77.75 92.6154C77.1959 92.0543 76.5195 91.629 75.7738 91.3726C75.028 91.1162 74.2331 91.0357 73.4512 91.1374C72.6692 91.2391 71.9213 91.5201 71.2659 91.9587C70.6105 92.3972 70.0654 92.9813 69.6731 93.6654Z" fill="black"/>
<path d="M103.462 94.0962C103.462 94.8102 103.745 95.495 104.25 95.9999C104.755 96.5048 105.44 96.7885 106.154 96.7885C106.868 96.7885 107.553 96.5048 108.058 95.9999C108.563 95.495 108.846 94.8102 108.846 94.0962C108.846 93.3821 108.563 92.6973 108.058 92.1924C107.553 91.6875 106.868 91.4038 106.154 91.4038C105.45 91.4366 104.784 91.7308 104.286 92.2288C103.788 92.7267 103.494 93.3927 103.462 94.0962Z" fill="black"/>
<path d="M138.462 69.8115C137.727 69.5113 136.932 69.3852 136.141 69.4432C135.349 69.5012 134.581 69.7417 133.898 70.146C133.215 70.5502 132.634 71.1071 132.202 71.773C131.77 72.439 131.498 73.196 131.408 73.9846C132.141 74.3028 132.94 74.4427 133.738 74.3928C134.536 74.3429 135.311 74.1046 135.999 73.6974C136.687 73.2902 137.269 72.7258 137.697 72.0504C138.125 71.375 138.387 70.6077 138.462 69.8115Z" fill="black"/>
<path d="M106.935 52.7692C106.284 53.2469 105.754 53.8711 105.389 54.5915C105.024 55.3118 104.834 56.1079 104.834 56.9154C104.834 57.7229 105.024 58.519 105.389 59.2393C105.754 59.9596 106.284 60.5839 106.935 61.0615C107.544 60.5563 108.035 59.9227 108.372 59.2061C108.709 58.4894 108.884 57.7073 108.884 56.9154C108.884 56.1235 108.709 55.3413 108.372 54.6247C108.035 53.908 107.544 53.2745 106.935 52.7692Z" fill="black"/>
<path d="M124.812 60.3615C124.025 60.3911 123.256 60.5998 122.562 60.9718C121.869 61.3438 121.269 61.8692 120.81 62.5081C120.35 63.1469 120.042 63.8822 119.91 64.658C119.778 65.4338 119.824 66.2296 120.046 66.9846C120.845 66.9887 121.632 66.8017 122.344 66.4394C123.056 66.0771 123.67 65.5498 124.136 64.9017C124.603 64.2536 124.907 63.5033 125.025 62.7135C125.142 61.9237 125.069 61.1173 124.812 60.3615Z" fill="black"/>
<path d="M119.023 99.6154C119.09 100.404 119.341 101.166 119.754 101.84C120.167 102.515 120.732 103.084 121.404 103.502C122.075 103.92 122.835 104.176 123.623 104.249C124.411 104.322 125.205 104.211 125.942 103.923C125.88 103.132 125.634 102.367 125.222 101.689C124.81 101.011 124.245 100.44 123.571 100.021C122.898 99.6015 122.136 99.3464 121.345 99.276C120.555 99.2056 119.76 99.3219 119.023 99.6154Z" fill="black"/>
<path d="M87.55 60.2808C87.342 60.9737 87.2758 61.7014 87.3553 62.4205C87.4348 63.1395 87.6584 63.8352 88.0127 64.4659C88.367 65.0967 88.8448 65.6495 89.4176 66.0915C89.9903 66.5335 90.6462 66.8556 91.3462 67.0385C92.2346 67.2 92.5038 66.85 92.5577 65.9885C92.6464 64.5685 92.1694 63.1712 91.2311 62.1017C90.2928 61.0322 88.9694 60.3776 87.55 60.2808Z" fill="black"/>
<path d="M92.2346 99.2654C91.5421 99.1677 90.8369 99.2123 90.1622 99.3964C89.4876 99.5806 88.8575 99.9004 88.3107 100.336C87.7638 100.772 87.3116 101.315 86.9818 101.932C86.6519 102.549 86.4514 103.226 86.3923 103.923C87.7143 104.397 89.1693 104.336 90.4468 103.753C91.7243 103.169 92.7233 102.11 93.2308 100.8C93.6346 99.7231 93.3115 99.3462 92.2346 99.2654Z" fill="black"/>
<path d="M135.769 82.0077C136.391 82.4918 137.112 82.8335 137.88 83.0086C138.649 83.1837 139.447 83.188 140.217 83.0211C140.987 82.8542 141.711 82.5202 142.339 82.0427C142.966 81.5652 143.48 80.9559 143.846 80.2577C143.249 79.7108 142.53 79.315 141.748 79.1036C140.967 78.8922 140.146 78.8713 139.355 79.0427C138.564 79.2142 137.825 79.5729 137.201 80.0888C136.577 80.6047 136.086 81.2627 135.769 82.0077Z" fill="black"/>
<path d="M161.185 96.4385C159.549 96.4385 157.981 95.7889 156.825 94.6327C155.669 93.4764 155.019 91.9082 155.019 90.2731C155.019 88.6379 155.669 87.0697 156.825 85.9135C157.981 84.7573 159.549 84.1077 161.185 84.1077C162.223 84.1405 163.243 84.3982 164.172 84.863C165.102 85.3278 165.92 85.9887 166.569 86.8L169.692 83.1115C167.378 80.906 164.301 79.6809 161.104 79.6923C159.69 79.6799 158.287 79.9462 156.975 80.476C155.664 81.0058 154.47 81.7886 153.461 82.7799C152.452 83.7712 151.649 84.9514 151.096 86.2533C150.544 87.5551 150.253 88.9531 150.24 90.3673C150.228 91.7815 150.494 93.1844 151.024 94.4957C151.554 95.807 152.337 97.0011 153.328 98.0099C154.319 99.0187 155.5 99.8223 156.801 100.375C158.103 100.928 159.501 101.218 160.915 101.231C164.211 101.12 167.336 99.7406 169.638 97.3808L166.488 94.0692C165.086 95.5049 163.19 96.3521 161.185 96.4385Z" fill="black"/>
<path d="M189.615 87.15C189.615 82.3846 186.358 79.6923 180.758 79.6923H171.335V100.8H176.719V94.8769H180.946L184.096 100.8H190.154L185.712 93.8269C186.944 93.2179 187.971 92.2607 188.665 91.0739C189.359 89.8871 189.689 88.5228 189.615 87.15ZM180.812 90.7577H176.692V84.0269H180.758C183.1 84.0269 184.446 85.1308 184.446 87.3385C184.446 89.5462 183.1 90.7577 180.758 90.7577H180.812Z" fill="black"/>
<path d="M206.092 92.05C206.158 92.6408 206.096 93.239 205.911 93.8038C205.725 94.3686 205.42 94.8869 205.017 95.3236C204.614 95.7602 204.121 96.105 203.572 96.3345C203.024 96.5641 202.433 96.673 201.838 96.6538C201.236 96.6788 200.635 96.5753 200.075 96.3502C199.515 96.1251 199.01 95.7835 198.592 95.3481C198.175 94.9127 197.854 94.3934 197.653 93.8248C197.451 93.2562 197.373 92.6512 197.423 92.05V79.6923H192.038V91.9423C192.038 97.5154 195.835 101.042 201.785 101.042C203.035 101.172 204.299 101.03 205.489 100.625C206.679 100.221 207.768 99.5643 208.681 98.7001C209.593 97.8358 210.309 96.7845 210.777 95.6181C211.246 94.4518 211.457 93.1979 211.396 91.9423V79.6923H206.012L206.092 92.05Z" fill="black"/>
<path d="M224.615 96.4385C222.98 96.4385 221.412 95.7889 220.256 94.6327C219.1 93.4764 218.45 91.9082 218.45 90.2731C218.45 88.6379 219.1 87.0697 220.256 85.9135C221.412 84.7573 222.98 84.1077 224.615 84.1077C225.654 84.1405 226.674 84.3982 227.603 84.863C228.533 85.3278 229.35 85.9887 230 86.8L233.123 83.1115C230.789 80.8866 227.679 79.6599 224.454 79.6923C223.04 79.6799 221.637 79.9462 220.325 80.476C219.014 81.0058 217.82 81.7886 216.811 82.7799C215.802 83.7712 214.999 84.9514 214.446 86.2533C213.894 87.5551 213.603 88.9531 213.59 90.3673C213.578 91.7815 213.844 93.1844 214.374 94.4957C214.904 95.807 215.687 97.0011 216.678 98.0099C217.669 99.0187 218.85 99.8223 220.151 100.375C221.453 100.928 222.851 101.218 224.265 101.231C227.561 101.12 230.686 99.7406 232.988 97.3808L229.838 94.0692C228.456 95.4863 226.592 96.332 224.615 96.4385Z" fill="black"/>
<path d="M240.042 92.4269H250.112V88.2269H240.042V84.0269H251.215V79.8H234.685V100.908H251.538V96.6808H240.042V92.4269Z" fill="black"/>
</svg>
